<?xml version="1.0" encoding="utf-8"?>
<!-- Generator: Adobe Illustrator 27.5.0, SVG Export Plug-In . SVG Version: 6.00 Build 0)  -->
<svg version="1.1" xmlns="http://www.w3.org/2000/svg" xmlns:xlink="http://www.w3.org/1999/xlink" x="0px" y="0px"
	 viewBox="0 0 500 500" style="enable-background:new 0 0 500 500;" xml:space="preserve">
<g id="Background_Complete">
	<g>
		<rect y="382.398" style="fill:#EBEBEB;" width="500" height="0.25"/>
		<rect x="416.779" y="398.494" style="fill:#EBEBEB;" width="33.122" height="0.25"/>
		<rect x="322.527" y="401.208" style="fill:#EBEBEB;" width="8.693" height="0.25"/>
		<rect x="396.586" y="389.208" style="fill:#EBEBEB;" width="19.192" height="0.25"/>
		<rect x="52.459" y="390.888" style="fill:#EBEBEB;" width="43.193" height="0.25"/>
		<rect x="104.556" y="390.888" style="fill:#EBEBEB;" width="6.333" height="0.25"/>
		<rect x="131.471" y="395.111" style="fill:#EBEBEB;" width="93.676" height="0.25"/>
		<path style="fill:#EBEBEB;" d="M237.014,337.8H43.915c-3.147,0-5.708-2.561-5.708-5.708V60.66c0-3.147,2.561-5.708,5.708-5.708
			h193.099c3.146,0,5.707,2.561,5.707,5.708v271.432C242.721,335.239,240.16,337.8,237.014,337.8z M43.915,55.203
			c-3.01,0-5.458,2.448-5.458,5.458v271.432c0,3.01,2.448,5.458,5.458,5.458h193.099c3.009,0,5.457-2.448,5.457-5.458V60.66
			c0-3.009-2.448-5.458-5.457-5.458H43.915z"/>
		<path style="fill:#EBEBEB;" d="M453.31,337.8H260.212c-3.147,0-5.707-2.561-5.707-5.708V60.66c0-3.147,2.561-5.708,5.707-5.708
			H453.31c3.148,0,5.708,2.561,5.708,5.708v271.432C459.019,335.239,456.458,337.8,453.31,337.8z M260.212,55.203
			c-3.009,0-5.457,2.448-5.457,5.458v271.432c0,3.01,2.448,5.458,5.457,5.458H453.31c3.01,0,5.458-2.448,5.458-5.458V60.66
			c0-3.009-2.448-5.458-5.458-5.458H260.212z"/>
	</g>
	<g>
		<path style="fill:#E0E0E0;" d="M386.823,126.496l8.962,6.593c-54.506,74.64-122.988,119.257-203.655,132.612
			c-57.015,9.442-100.811-0.86-107.604-2.614v20.575c10.057,2.245,31.141,6.021,59.227,6.021c15.082,0,32.183-1.09,50.671-4.091
			c38.739-6.289,75.568-19.723,109.464-39.929c40.47-24.124,76.779-57.993,108.014-100.718l8.853,6.513l0.15-35.748L386.823,126.496
			z"/>
		<g>
			<rect x="85.527" y="291.692" style="fill:#EBEBEB;" width="8.967" height="90.11"/>
			<rect x="107.172" y="295.692" style="fill:#EBEBEB;" width="8.967" height="86.11"/>
			<rect x="128.816" y="297.692" style="fill:#EBEBEB;" width="8.967" height="84.11"/>
			<rect x="150.461" y="297.692" style="fill:#EBEBEB;" width="8.967" height="84.11"/>
			<rect x="172.105" y="296.692" style="fill:#EBEBEB;" width="8.967" height="85.11"/>
			<rect x="193.75" y="293.692" style="fill:#EBEBEB;" width="8.967" height="88.11"/>
			<rect x="215.395" y="288.692" style="fill:#EBEBEB;" width="8.967" height="93.11"/>
			<rect x="237.039" y="283.692" style="fill:#EBEBEB;" width="8.967" height="98.11"/>
			<rect x="258.684" y="279.692" style="fill:#EBEBEB;" width="8.967" height="102.11"/>
			<rect x="280.328" y="266.615" style="fill:#EBEBEB;" width="8.967" height="115.187"/>
			<rect x="301.973" y="255.626" style="fill:#EBEBEB;" width="8.967" height="126.176"/>
			<rect x="323.617" y="243.11" style="fill:#EBEBEB;" width="8.967" height="138.692"/>
			<rect x="345.262" y="226.428" style="fill:#EBEBEB;" width="8.967" height="155.374"/>
			<rect x="366.906" y="209.022" style="fill:#EBEBEB;" width="8.967" height="172.78"/>
			<rect x="388.551" y="185.813" style="fill:#EBEBEB;" width="8.967" height="195.989"/>
			<rect x="410.196" y="160.495" style="fill:#EBEBEB;" width="8.967" height="221.308"/>
		</g>
	</g>
</g>
<g id="Background_Simple" style="display:none;">
	<g style="display:inline;">
		<path style="fill:#407BFF;" d="M90.044,125.761c27.919-59.449,127.059-51.062,165.317-9.255
			c38.258,41.806,50.696,68.599,85.208,52.983c34.512-15.616,78.518-11.44,81.042,38.164
			c2.525,49.604-37.913,108.263-102.09,125.615c-64.177,17.352-64.161,78.759-149.1,66.368c-46.31-6.756-47.365-56.86-40.825-98.301
			S57.666,194.705,90.044,125.761z"/>
		<path style="opacity:0.9;fill:#FFFFFF;" d="M90.044,125.761c27.919-59.449,127.059-51.062,165.317-9.255
			c38.258,41.806,50.696,68.599,85.208,52.983c34.512-15.616,78.518-11.44,81.042,38.164
			c2.525,49.604-37.913,108.263-102.09,125.615c-64.177,17.352-64.161,78.759-149.1,66.368c-46.31-6.756-47.365-56.86-40.825-98.301
			S57.666,194.705,90.044,125.761z"/>
	</g>
</g>
<g id="Shadow_1_">
	<ellipse id="_x3C_Path_x3E__359_" style="fill:#F5F5F5;" cx="250" cy="416.238" rx="193.889" ry="11.323"/>
</g>
<g id="Banknote">
	<g>
		<g>
			<path style="fill:#407BFF;" d="M397.504,270.386c-19.214,47.714-46.547,91.74-80.787,130.125
				c-20.644-12.817-41.289-25.634-61.933-38.451c34.241-38.385,61.573-82.41,80.787-130.125
				C356.215,244.752,376.859,257.569,397.504,270.386z"/>
			<path style="opacity:0.4;fill:#FFFFFF;enable-background:new    ;" d="M397.506,270.382
				c-19.219,47.719-46.554,91.742-80.792,130.126c-8.92-5.537-17.84-11.075-26.77-16.616l-0.004-0.007
				c-11.719-7.27-23.433-14.551-35.156-21.828c34.238-38.383,61.573-82.407,80.785-130.122
				C356.215,244.756,376.857,257.571,397.506,270.382z"/>
			<path style="opacity:0.2;enable-background:new    ;" d="M345.758,242.81c-2.103,5.098-7.689,6.842-12.346,3.95
				c-16.952,38.577-39.293,74.555-66.354,106.855c4.659,2.891,5.573,8.67,1.935,12.816c12.868,7.989,25.735,15.978,38.603,23.967
				c3.638-4.147,10.268-5.238,14.923-2.349c27.061-32.3,49.402-68.277,66.354-106.855c-4.656-2.888-6.616-9.317-4.512-14.416
				c0.011-0.026,0.021-0.052,0.032-0.078c-12.867-7.989-25.735-15.978-38.603-23.966C345.78,242.758,345.769,242.783,345.758,242.81
				z M347.552,330.56c-5.945,9.548-18.889,12.232-28.4,6.327c-9.524-5.915-12.012-18.178-6.068-27.726
				c5.958-9.539,18.086-12.733,27.61-6.819C350.207,308.245,353.51,321.022,347.552,330.56z"/>
			<g style="opacity:0.2;enable-background:new    ;">
				<path d="M340.626,323.706c0.852,0.529,1.705,1.058,2.557,1.587c-0.387,0.627-0.776,1.254-1.166,1.879
					c-0.845-0.524-1.69-1.049-2.534-1.573c-1.535,2.159-3.645,3.863-5.434,4.405c-0.55-0.817-1.1-1.635-1.65-2.453
					c1.627-0.547,3.374-1.842,4.618-3.483c-1.522-0.945-3.044-1.89-4.566-2.835c-2.199,2.159-4.758,4.349-7.932,2.378
					c-2.332-1.448-3.27-4.381-1.383-8.161c-0.86-0.534-1.72-1.068-2.58-1.602c0.39-0.625,0.779-1.252,1.166-1.879
					c0.845,0.525,1.69,1.049,2.534,1.574c1.14-1.642,2.691-3.061,4.239-3.814c0.579,0.793,1.158,1.586,1.736,2.379
					c-1.446,0.785-2.62,1.832-3.509,2.965c1.537,0.954,3.074,1.909,4.612,2.863c2.191-2.165,4.664-4.469,7.837-2.5
					C341.497,316.88,342.482,319.872,340.626,323.706z M329.689,319.519c-1.355-0.841-2.71-1.682-4.064-2.523
					c-0.764,1.782-0.377,2.973,0.629,3.597C327.349,321.274,328.473,320.605,329.689,319.519z M337.594,318.522
					c-1.119-0.694-2.259-0.006-3.497,1.131c1.347,0.836,2.694,1.673,4.041,2.509C338.92,320.328,338.575,319.131,337.594,318.522z"
					/>
			</g>
		</g>
		<path style="opacity:0.2;enable-background:new    ;" d="M397.506,270.382c-19.219,47.719-46.554,91.742-80.792,130.126
			c-8.92-5.537-17.84-11.075-26.77-16.616l-0.004-0.007L268.694,348C268.694,348,353.445,312.876,397.506,270.382z"/>
		<g>
			<path style="fill:#407BFF;" d="M443.5,337.403c-39.468,32.986-84.351,58.887-132.659,76.553
				c-12.145-21.047-24.291-42.093-36.436-63.14c48.309-17.667,93.191-43.567,132.659-76.553
				C419.209,295.31,431.355,316.357,443.5,337.403z"/>
			<path style="opacity:0.4;fill:#FFFFFF;enable-background:new    ;" d="M443.5,337.403
				c-39.468,32.986-84.351,58.887-132.659,76.553c-12.145-21.047-24.291-42.093-36.436-63.14
				c48.309-17.667,93.191-43.567,132.659-76.553C419.209,295.31,431.355,316.357,443.5,337.403z"/>
			<path style="opacity:0.2;enable-background:new    ;" d="M410.909,288.66c-4.261,3.501-10.009,2.401-12.748-2.349
				c-33.16,26-69.842,47.163-108.948,62.857c2.742,4.748,0.818,10.274-4.346,12.211c7.57,13.118,15.14,26.237,22.71,39.355
				c5.165-1.938,11.524,0.231,14.264,4.976c39.106-15.693,75.789-36.857,108.949-62.857c-2.741-4.744-1.432-11.337,2.83-14.838
				c0.022-0.018,0.043-0.036,0.065-0.053c-7.57-13.118-15.14-26.237-22.711-39.355C410.953,288.625,410.931,288.642,410.909,288.66z
				 M371.053,366.858c-9.749,5.609-22.427,1.863-28.022-7.834c-5.602-9.711-2.004-21.696,7.744-27.305
				c9.756-5.595,21.955-2.684,27.558,7.027C383.931,348.441,380.809,361.264,371.053,366.858z"/>
			<g style="opacity:0.2;enable-background:new    ;">
				<path d="M368.185,357.546c0.501,0.869,1.003,1.738,1.504,2.607c-0.637,0.37-1.276,0.739-1.915,1.106
					c-0.497-0.861-0.994-1.722-1.491-2.584c-2.373,1.178-5.037,1.684-6.869,1.317c-0.099-0.98-0.197-1.96-0.296-2.941
					c1.693,0.286,3.844-0.031,5.715-0.889c-0.896-1.552-1.791-3.103-2.686-4.655c-2.958,0.865-6.248,1.587-8.115-1.649
					c-1.372-2.378-0.814-5.406,2.634-7.847c-0.506-0.877-1.012-1.753-1.518-2.63c0.639-0.367,1.277-0.736,1.915-1.106
					c0.497,0.861,0.994,1.722,1.491,2.584c1.78-0.909,3.818-1.428,5.537-1.36c0.136,0.973,0.272,1.945,0.406,2.917
					c-1.645,0.009-3.174,0.377-4.493,0.957c0.904,1.567,1.809,3.134,2.713,4.701c2.954-0.873,6.222-1.737,8.089,1.497
					C372.176,351.94,371.631,355.042,368.185,357.546z M360.521,348.69c-0.797-1.381-1.594-2.762-2.391-4.143
					c-1.515,1.21-1.736,2.443-1.144,3.467C357.63,349.132,358.936,349.073,360.521,348.69z M367.96,351.544
					c-0.659-1.141-1.988-1.072-3.617-0.655c0.793,1.373,1.585,2.747,2.378,4.12C368.276,353.762,368.537,352.544,367.96,351.544z"/>
			</g>
		</g>
	</g>
</g>
<g id="Coins">
	<g>
		<g>
			
				<rect x="382.025" y="406.293" transform="matrix(-1 -2.561935e-06 2.561935e-06 -1 803.082 820.2506)" style="fill:#407BFF;" width="39.033" height="7.664"/>
			
				<rect x="382.025" y="406.293" transform="matrix(-1 -1.224647e-16 1.224647e-16 -1 772.6525 820.2495)" style="opacity:0.2;" width="8.602" height="7.664"/>
			<rect x="391.628" y="406.293" style="opacity:0.2;" width="3.134" height="7.664"/>
			<rect x="396.628" y="406.293" style="opacity:0.2;" width="2.145" height="7.664"/>
			<rect x="401.628" y="406.293" style="opacity:0.2;" width="1.072" height="7.664"/>
			<rect x="408.628" y="406.293" style="opacity:0.2;" width="0.536" height="7.664"/>
		</g>
		<g>
			
				<rect x="383.871" y="398.673" transform="matrix(-1 -2.561935e-06 2.561935e-06 -1 806.7744 805.0108)" style="fill:#407BFF;" width="39.033" height="7.664"/>
			
				<rect x="383.871" y="398.673" transform="matrix(-1 -1.224647e-16 1.224647e-16 -1 776.3448 805.0097)" style="opacity:0.2;" width="8.602" height="7.664"/>
			<rect x="393.474" y="398.673" style="opacity:0.2;" width="3.134" height="7.664"/>
			<rect x="398.474" y="398.673" style="opacity:0.2;" width="2.145" height="7.664"/>
			<rect x="403.474" y="398.673" style="opacity:0.2;" width="1.072" height="7.664"/>
			<rect x="410.474" y="398.673" style="opacity:0.2;" width="0.536" height="7.664"/>
		</g>
		<g>
			
				<rect x="380.381" y="391.053" transform="matrix(-1 -1.224647e-16 1.224647e-16 -1 799.7958 789.7697)" style="fill:#407BFF;" width="39.033" height="7.664"/>
			
				<rect x="380.381" y="391.053" transform="matrix(-1 -1.224647e-16 1.224647e-16 -1 769.3653 789.7697)" style="opacity:0.2;" width="8.602" height="7.664"/>
			<rect x="389.984" y="391.053" style="opacity:0.2;" width="3.134" height="7.664"/>
			<rect x="394.984" y="391.053" style="opacity:0.2;" width="2.145" height="7.664"/>
			<rect x="399.984" y="391.053" style="opacity:0.2;" width="1.072" height="7.664"/>
			<rect x="406.984" y="391.053" style="opacity:0.2;" width="0.536" height="7.664"/>
		</g>
		<g>
			
				<rect x="382.025" y="383.433" transform="matrix(-1 -2.561935e-06 2.561935e-06 -1 803.082 774.5308)" style="fill:#407BFF;" width="39.033" height="7.664"/>
			
				<rect x="382.025" y="383.433" transform="matrix(-1 -1.224647e-16 1.224647e-16 -1 772.6525 774.5297)" style="opacity:0.2;" width="8.602" height="7.664"/>
			<rect x="391.628" y="383.433" style="opacity:0.2;" width="3.134" height="7.664"/>
			<rect x="396.628" y="383.433" style="opacity:0.2;" width="2.145" height="7.664"/>
			<rect x="401.628" y="383.433" style="opacity:0.2;" width="1.072" height="7.664"/>
			<rect x="408.628" y="383.433" style="opacity:0.2;" width="0.536" height="7.664"/>
		</g>
		<g>
			
				<rect x="383.025" y="375.813" transform="matrix(-1 -2.561935e-06 2.561935e-06 -1 805.0822 759.2908)" style="fill:#407BFF;" width="39.033" height="7.664"/>
			
				<rect x="383.025" y="375.813" transform="matrix(-1 -1.224647e-16 1.224647e-16 -1 774.6526 759.2897)" style="opacity:0.2;" width="8.602" height="7.664"/>
			<rect x="392.628" y="375.813" style="opacity:0.2;" width="3.134" height="7.664"/>
			<rect x="397.628" y="375.813" style="opacity:0.2;" width="2.145" height="7.664"/>
			<rect x="402.628" y="375.813" style="opacity:0.2;" width="1.072" height="7.664"/>
			<rect x="409.628" y="375.813" style="opacity:0.2;" width="0.536" height="7.664"/>
		</g>
		<g>
			
				<rect x="382.025" y="368.193" transform="matrix(-1 -2.561935e-06 2.561935e-06 -1 803.0822 744.051)" style="fill:#407BFF;" width="39.033" height="7.664"/>
			
				<rect x="382.025" y="368.193" transform="matrix(-1 -1.224647e-16 1.224647e-16 -1 772.6526 744.0499)" style="opacity:0.2;" width="8.602" height="7.664"/>
			<rect x="391.628" y="368.193" style="opacity:0.2;" width="3.134" height="7.664"/>
			<rect x="396.628" y="368.193" style="opacity:0.2;" width="2.145" height="7.664"/>
			<rect x="401.628" y="368.193" style="opacity:0.2;" width="1.072" height="7.664"/>
			<rect x="408.628" y="368.193" style="opacity:0.2;" width="0.536" height="7.664"/>
		</g>
		<g>
			
				<rect x="382.025" y="360.573" transform="matrix(-1 -2.561935e-06 2.561935e-06 -1 803.0823 728.811)" style="fill:#407BFF;" width="39.033" height="7.664"/>
			
				<rect x="382.025" y="360.573" transform="matrix(-1 -1.224647e-16 1.224647e-16 -1 772.6527 728.8099)" style="opacity:0.2;" width="8.602" height="7.664"/>
			<rect x="391.628" y="360.573" style="opacity:0.2;" width="3.134" height="7.664"/>
			<rect x="396.628" y="360.573" style="opacity:0.2;" width="2.145" height="7.664"/>
			<rect x="401.628" y="360.573" style="opacity:0.2;" width="1.072" height="7.664"/>
			<rect x="408.628" y="360.573" style="opacity:0.2;" width="0.536" height="7.664"/>
		</g>
		<g>
			
				<rect x="384.025" y="352.953" transform="matrix(-1 -2.561935e-06 2.561935e-06 -1 807.0823 713.571)" style="fill:#407BFF;" width="39.033" height="7.664"/>
			
				<rect x="384.025" y="352.953" transform="matrix(-1 -1.224647e-16 1.224647e-16 -1 776.6527 713.5699)" style="opacity:0.2;" width="8.602" height="7.664"/>
			<rect x="393.628" y="352.953" style="opacity:0.2;" width="3.134" height="7.664"/>
			<rect x="398.628" y="352.953" style="opacity:0.2;" width="2.145" height="7.664"/>
			<rect x="403.628" y="352.953" style="opacity:0.2;" width="1.072" height="7.664"/>
			<rect x="410.628" y="352.953" style="opacity:0.2;" width="0.536" height="7.664"/>
		</g>
		<g>
			
				<rect x="382.025" y="345.333" transform="matrix(-1 -2.561935e-06 2.561935e-06 -1 803.0823 698.3311)" style="fill:#407BFF;" width="39.033" height="7.664"/>
			
				<rect x="382.025" y="345.333" transform="matrix(-1 -1.224647e-16 1.224647e-16 -1 772.6527 698.3299)" style="opacity:0.2;" width="8.602" height="7.664"/>
			<rect x="391.628" y="345.333" style="opacity:0.2;" width="3.134" height="7.664"/>
			<rect x="396.628" y="345.333" style="opacity:0.2;" width="2.145" height="7.664"/>
			<rect x="401.628" y="345.333" style="opacity:0.2;" width="1.072" height="7.664"/>
			<rect x="408.628" y="345.333" style="opacity:0.2;" width="0.536" height="7.664"/>
		</g>
		<g>
			
				<rect x="380.025" y="337.713" transform="matrix(-1 -1.224647e-16 1.224647e-16 -1 799.0832 683.0901)" style="fill:#407BFF;" width="39.033" height="7.664"/>
			
				<rect x="380.025" y="337.713" transform="matrix(-1 -1.224647e-16 1.224647e-16 -1 768.6527 683.0901)" style="opacity:0.2;" width="8.602" height="7.664"/>
			<rect x="389.628" y="337.713" style="opacity:0.2;" width="3.134" height="7.664"/>
			<rect x="394.628" y="337.713" style="opacity:0.2;" width="2.145" height="7.664"/>
			<rect x="399.628" y="337.713" style="opacity:0.2;" width="1.072" height="7.664"/>
			<rect x="406.628" y="337.713" style="opacity:0.2;" width="0.536" height="7.664"/>
		</g>
	</g>
	<g>
		<g>
			
				<rect x="347.603" y="406.293" transform="matrix(-1 -2.561935e-06 2.561935e-06 -1 734.2369 820.2505)" style="fill:#407BFF;" width="39.033" height="7.664"/>
			
				<rect x="347.603" y="406.293" transform="matrix(-1 -1.224647e-16 1.224647e-16 -1 703.8075 820.2495)" style="opacity:0.2;" width="8.602" height="7.664"/>
			<rect x="357.205" y="406.293" style="opacity:0.2;" width="3.134" height="7.664"/>
			<rect x="362.205" y="406.293" style="opacity:0.2;" width="2.145" height="7.664"/>
			<rect x="367.205" y="406.293" style="opacity:0.2;" width="1.072" height="7.664"/>
			<rect x="374.205" y="406.293" style="opacity:0.2;" width="0.536" height="7.664"/>
		</g>
		<g>
			
				<rect x="349.603" y="398.673" transform="matrix(-1 -2.561935e-06 2.561935e-06 -1 738.2369 805.0107)" style="fill:#407BFF;" width="39.033" height="7.664"/>
			
				<rect x="349.603" y="398.673" transform="matrix(-1 -1.224647e-16 1.224647e-16 -1 707.8075 805.0097)" style="opacity:0.2;" width="8.602" height="7.664"/>
			<rect x="359.205" y="398.673" style="opacity:0.2;" width="3.134" height="7.664"/>
			<rect x="364.205" y="398.673" style="opacity:0.2;" width="2.145" height="7.664"/>
			<rect x="369.205" y="398.673" style="opacity:0.2;" width="1.072" height="7.664"/>
			<rect x="376.205" y="398.673" style="opacity:0.2;" width="0.536" height="7.664"/>
		</g>
		<g>
			
				<rect x="347.603" y="391.053" transform="matrix(-1 -2.561935e-06 2.561935e-06 -1 734.237 789.7708)" style="fill:#407BFF;" width="39.033" height="7.664"/>
			
				<rect x="347.603" y="391.053" transform="matrix(-1 -1.224647e-16 1.224647e-16 -1 703.8075 789.7697)" style="opacity:0.2;" width="8.602" height="7.664"/>
			<rect x="357.205" y="391.053" style="opacity:0.2;" width="3.134" height="7.664"/>
			<rect x="362.205" y="391.053" style="opacity:0.2;" width="2.145" height="7.664"/>
			<rect x="367.205" y="391.053" style="opacity:0.2;" width="1.072" height="7.664"/>
			<rect x="374.205" y="391.053" style="opacity:0.2;" width="0.536" height="7.664"/>
		</g>
		<g>
			
				<rect x="348.603" y="383.433" transform="matrix(-1 -2.561935e-06 2.561935e-06 -1 736.237 774.5308)" style="fill:#407BFF;" width="39.033" height="7.664"/>
			
				<rect x="348.603" y="383.433" transform="matrix(-1 -1.224647e-16 1.224647e-16 -1 705.8075 774.5297)" style="opacity:0.2;" width="8.602" height="7.664"/>
			<rect x="358.205" y="383.433" style="opacity:0.2;" width="3.134" height="7.664"/>
			<rect x="363.205" y="383.433" style="opacity:0.2;" width="2.145" height="7.664"/>
			<rect x="368.205" y="383.433" style="opacity:0.2;" width="1.072" height="7.664"/>
			<rect x="375.205" y="383.433" style="opacity:0.2;" width="0.536" height="7.664"/>
		</g>
		<g>
			
				<rect x="347.603" y="375.813" transform="matrix(-1 -2.561935e-06 2.561935e-06 -1 734.2371 759.2907)" style="fill:#407BFF;" width="39.033" height="7.664"/>
			
				<rect x="347.603" y="375.813" transform="matrix(-1 -1.224647e-16 1.224647e-16 -1 703.8076 759.2897)" style="opacity:0.2;" width="8.602" height="7.664"/>
			<rect x="357.205" y="375.813" style="opacity:0.2;" width="3.134" height="7.664"/>
			<rect x="362.205" y="375.813" style="opacity:0.2;" width="2.145" height="7.664"/>
			<rect x="367.205" y="375.813" style="opacity:0.2;" width="1.072" height="7.664"/>
			<rect x="374.205" y="375.813" style="opacity:0.2;" width="0.536" height="7.664"/>
		</g>
		<g>
			
				<rect x="350.603" y="368.193" transform="matrix(-1 -2.561935e-06 2.561935e-06 -1 740.2371 744.051)" style="fill:#407BFF;" width="39.033" height="7.664"/>
			
				<rect x="350.603" y="368.193" transform="matrix(-1 -1.224647e-16 1.224647e-16 -1 709.8076 744.0499)" style="opacity:0.2;" width="8.602" height="7.664"/>
			<rect x="360.205" y="368.193" style="opacity:0.2;" width="3.134" height="7.664"/>
			<rect x="365.205" y="368.193" style="opacity:0.2;" width="2.145" height="7.664"/>
			<rect x="370.205" y="368.193" style="opacity:0.2;" width="1.072" height="7.664"/>
			<rect x="377.205" y="368.193" style="opacity:0.2;" width="0.536" height="7.664"/>
		</g>
	</g>
</g>
<g id="Device">
	<g>
		<path style="fill:#263238;" d="M321.815,413.957H176.126c-5.745,0-10.403-4.657-10.403-10.403V107.898
			c0-5.745,4.657-10.403,10.403-10.403h145.689c5.745,0,10.402,4.657,10.402,10.403v295.656
			C332.217,409.299,327.56,413.957,321.815,413.957z"/>
		<path style="fill:#407BFF;" d="M326.652,107.528v295.861c0,2.293-1.844,4.076-4.137,4.076H175.092
			c-2.108,0-3.696-1.632-3.696-3.74V107.193c0-1.826,1.341-3.423,3.167-3.423h36.856c1.041,0,1.985,0.679,2.373,1.658l1.526,3.758
			c0.388,0.97,1.332,1.641,2.373,1.641h62.746c1.041,0,1.985-0.644,2.373-1.614l1.526-3.775c0.388-0.979,1.332-1.667,2.373-1.667
			h36.326C325.046,103.77,326.652,105.517,326.652,107.528z"/>
		<rect x="171.391" y="116.085" style="opacity:0.7;fill:#FFFFFF;enable-background:new    ;" width="155.256" height="279.16"/>
		<circle style="opacity:0.6;fill:#FFFFFF;enable-background:new    ;" cx="245.507" cy="104.137" r="2.131"/>
		<path style="opacity:0.6;fill:#FFFFFF;enable-background:new    ;" d="M251.951,104.137c0,0.754-0.611,1.365-1.365,1.365
			c-0.754,0-1.365-0.611-1.365-1.365s0.611-1.365,1.365-1.365C251.34,102.772,251.951,103.383,251.951,104.137z"/>
		<g>
			
				<rect x="188.906" y="109.451" transform="matrix(-1 -1.224647e-16 1.224647e-16 -1 379.7303 221.459)" style="opacity:0.6;fill:#FFFFFF;enable-background:new    ;" width="1.918" height="2.557"/>
			
				<rect x="185.781" y="108.598" transform="matrix(-1 -1.224647e-16 1.224647e-16 -1 373.4796 220.6062)" style="opacity:0.6;fill:#FFFFFF;enable-background:new    ;" width="1.918" height="3.409"/>
			
				<rect x="182.656" y="107.745" transform="matrix(-1 -1.224647e-16 1.224647e-16 -1 367.2291 219.7533)" style="opacity:0.6;fill:#FFFFFF;enable-background:new    ;" width="1.918" height="4.262"/>
			
				<rect x="179.53" y="106.893" transform="matrix(-1 -1.224647e-16 1.224647e-16 -1 360.9785 218.9004)" style="opacity:0.6;fill:#FFFFFF;enable-background:new    ;" width="1.918" height="5.115"/>
		</g>
		<g>
			<rect x="308.345" y="108.518" style="opacity:0.6;fill:#FFFFFF;enable-background:new    ;" width="1.137" height="2.556"/>
			
				<rect x="310.263" y="107.585" transform="matrix(-1 -1.224647e-16 1.224647e-16 -1 629.5824 219.593)" style="opacity:0.6;fill:#FFFFFF;enable-background:new    ;" width="9.056" height="4.423"/>
		</g>
		<g>
			<rect x="171.204" y="116.116" style="fill:#263238;" width="155.531" height="25.199"/>
			<g>
				<g style="opacity:0.7;enable-background:new    ;">
					<path style="fill:#FFFFFF;" d="M210.422,125.071v2.554h4.054v1.319h-4.054v3.214h-1.559v-8.395h6.128v1.308H210.422z"/>
					<path style="fill:#FFFFFF;" d="M216.039,123.8c0-0.504,0.408-0.899,0.959-0.899c0.551,0,0.959,0.372,0.959,0.863
						c0,0.528-0.396,0.936-0.959,0.936C216.447,124.699,216.039,124.304,216.039,123.8z M216.243,125.755h1.499v6.404h-1.499
						V125.755z"/>
					<path style="fill:#FFFFFF;" d="M226.019,128.489v3.67h-1.499v-3.478c0-1.14-0.564-1.691-1.523-1.691
						c-1.067,0-1.787,0.648-1.787,1.931v3.238h-1.499v-6.404h1.427v0.827c0.492-0.587,1.271-0.899,2.207-0.899
						C224.88,125.683,226.019,126.558,226.019,128.489z"/>
					<path style="fill:#FFFFFF;" d="M233.292,128.405v3.754h-1.416v-0.78c-0.36,0.552-1.055,0.864-2.015,0.864
						c-1.463,0-2.387-0.804-2.387-1.919c0-1.067,0.72-1.907,2.663-1.907h1.655v-0.096c0-0.876-0.527-1.391-1.595-1.391
						c-0.719,0-1.463,0.24-1.943,0.636l-0.587-1.092c0.684-0.527,1.679-0.791,2.71-0.791
						C232.224,125.683,233.292,126.558,233.292,128.405z M231.792,130.156v-0.744h-1.547c-1.02,0-1.295,0.384-1.295,0.852
						c0,0.539,0.456,0.888,1.223,0.888C230.905,131.152,231.54,130.816,231.792,130.156z"/>
					<path style="fill:#FFFFFF;" d="M241.523,128.489v3.67h-1.499v-3.478c0-1.14-0.564-1.691-1.523-1.691
						c-1.067,0-1.787,0.648-1.787,1.931v3.238h-1.499v-6.404h1.427v0.827c0.492-0.587,1.271-0.899,2.207-0.899
						C240.384,125.683,241.523,126.558,241.523,128.489z"/>
					<path style="fill:#FFFFFF;" d="M242.966,128.957c0-1.919,1.44-3.274,3.466-3.274c1.247,0,2.243,0.516,2.734,1.487l-1.151,0.672
						c-0.384-0.612-0.959-0.888-1.595-0.888c-1.103,0-1.943,0.768-1.943,2.003c0,1.247,0.84,2.003,1.943,2.003
						c0.636,0,1.211-0.276,1.595-0.888l1.151,0.672c-0.492,0.96-1.487,1.499-2.734,1.499
						C244.406,132.243,242.966,130.876,242.966,128.957z"/>
					<path style="fill:#FFFFFF;" d="M256.367,129.436h-5.025c0.18,0.936,0.96,1.535,2.075,1.535c0.72,0,1.283-0.228,1.739-0.695
						l0.803,0.923c-0.576,0.684-1.475,1.043-2.579,1.043c-2.146,0-3.538-1.379-3.538-3.286c0-1.907,1.403-3.274,3.311-3.274
						c1.871,0,3.238,1.308,3.238,3.311C256.391,129.113,256.379,129.293,256.367,129.436z M251.33,128.441h3.634
						c-0.12-0.924-0.828-1.56-1.811-1.56C252.181,126.882,251.474,127.506,251.33,128.441z"/>
					<path style="fill:#FFFFFF;" d="M266.735,130.216h-4.198l-0.827,1.943h-1.607l3.778-8.395h1.535l3.79,8.395h-1.631
						L266.735,130.216z M266.219,128.993l-1.583-3.67l-1.571,3.67H266.219z"/>
					<path style="fill:#FFFFFF;" d="M276.934,128.957c0,1.991-1.379,3.286-3.25,3.286c-0.816,0-1.535-0.276-2.051-0.864v3.106
						h-1.499v-8.731h1.427v0.839c0.504-0.612,1.248-0.912,2.123-0.912C275.555,125.683,276.934,126.978,276.934,128.957z
						 M275.411,128.957c0-1.224-0.816-2.003-1.895-2.003c-1.08,0-1.907,0.779-1.907,2.003c0,1.223,0.828,2.003,1.907,2.003
						C274.595,130.96,275.411,130.18,275.411,128.957z"/>
					<path style="fill:#FFFFFF;" d="M285.166,128.957c0,1.991-1.379,3.286-3.25,3.286c-0.816,0-1.535-0.276-2.051-0.864v3.106
						h-1.499v-8.731h1.427v0.839c0.504-0.612,1.247-0.912,2.123-0.912C283.787,125.683,285.166,126.978,285.166,128.957z
						 M283.643,128.957c0-1.224-0.816-2.003-1.895-2.003c-1.079,0-1.907,0.779-1.907,2.003c0,1.223,0.828,2.003,1.907,2.003
						C282.827,130.96,283.643,130.18,283.643,128.957z"/>
				</g>
				<g style="opacity:0.7;">
					<g>
						<path style="fill:#FFFFFF;" d="M181.753,133.402c-0.256,0-0.512-0.098-0.707-0.293l-3.753-3.753
							c-0.391-0.391-0.391-1.023,0-1.414l3.753-3.753c0.391-0.391,1.023-0.391,1.414,0c0.391,0.391,0.391,1.023,0,1.414
							l-3.046,3.046l3.046,3.046c0.391,0.391,0.391,1.023,0,1.414C182.265,133.305,182.009,133.402,181.753,133.402z"/>
					</g>
				</g>
				<g style="opacity:0.7;">
					<path style="fill:#FFFFFF;" d="M320.94,124.989c0,0.628-0.509,1.137-1.137,1.137c-0.628,0-1.137-0.509-1.137-1.137
						c0-0.628,0.509-1.137,1.137-1.137C320.431,123.852,320.94,124.361,320.94,124.989z"/>
					<path style="fill:#FFFFFF;" d="M320.94,128.649c0,0.628-0.509,1.137-1.137,1.137c-0.628,0-1.137-0.509-1.137-1.137
						c0-0.628,0.509-1.137,1.137-1.137C320.431,127.512,320.94,128.021,320.94,128.649z"/>
					<path style="fill:#FFFFFF;" d="M320.94,132.31c0,0.628-0.509,1.137-1.137,1.137c-0.628,0-1.137-0.509-1.137-1.137
						c0-0.628,0.509-1.137,1.137-1.137C320.431,131.173,320.94,131.682,320.94,132.31z"/>
				</g>
			</g>
			<g>
				<path style="fill:#407BFF;" d="M230.561,163.855v1.343h-0.983v-1.331c-1.176-0.072-2.315-0.456-2.938-0.996l0.54-1.211
					c0.588,0.48,1.487,0.827,2.399,0.911v-2.398c-1.331-0.324-2.759-0.756-2.759-2.423c0-1.223,0.888-2.29,2.759-2.471v-1.355h0.983
					v1.331c0.887,0.048,1.787,0.312,2.435,0.731l-0.492,1.212c-0.636-0.372-1.308-0.576-1.943-0.648v2.423
					c1.331,0.324,2.782,0.743,2.782,2.411C233.343,162.607,232.443,163.662,230.561,163.855z M229.577,158.721v-2.135
					c-0.852,0.132-1.211,0.564-1.211,1.091C228.366,158.253,228.881,158.517,229.577,158.721z M231.808,161.492
					c0-0.588-0.528-0.864-1.247-1.067v2.123C231.436,162.415,231.808,162.007,231.808,161.492z"/>
				<path style="fill:#407BFF;" d="M240.509,155.363v8.396h-1.559v-7.088h-1.775v-1.308H240.509z"/>
				<path style="fill:#407BFF;" d="M248.99,161.348c0,1.559-1.355,2.531-3.442,2.531c-2.087,0-3.418-0.972-3.418-2.531
					c0-0.923,0.48-1.607,1.344-2.003c-0.672-0.372-1.043-0.972-1.043-1.763c0-1.439,1.259-2.338,3.118-2.338
					c1.871,0,3.142,0.899,3.142,2.338c0,0.792-0.384,1.392-1.067,1.763C248.499,159.741,248.99,160.424,248.99,161.348z
					 M247.419,161.3c0-0.828-0.72-1.343-1.871-1.343c-1.151,0-1.847,0.516-1.847,1.343c0,0.852,0.696,1.355,1.847,1.355
					C246.7,162.655,247.419,162.151,247.419,161.3z M243.965,157.654c0,0.719,0.6,1.175,1.583,1.175
					c0.996,0,1.607-0.456,1.607-1.175c0-0.756-0.648-1.188-1.607-1.188C244.589,156.466,243.965,156.898,243.965,157.654z"/>
				<path style="fill:#407BFF;" d="M250.074,162.847c0-0.6,0.443-0.995,0.983-0.995c0.54,0,0.983,0.396,0.983,0.995
					c0,0.576-0.444,0.996-0.983,0.996C250.518,163.842,250.074,163.422,250.074,162.847z"/>
				<path style="fill:#407BFF;" d="M255.773,155.363v8.396h-1.559v-7.088h-1.775v-1.308H255.773z"/>
				<path style="fill:#407BFF;" d="M263.522,162.439v1.319h-6.188v-1.044l3.334-3.166c0.815-0.78,0.959-1.271,0.959-1.739
					c0-0.768-0.528-1.212-1.559-1.212c-0.815,0-1.499,0.276-1.967,0.876l-1.092-0.839c0.648-0.875,1.811-1.391,3.19-1.391
					c1.823,0,2.999,0.923,2.999,2.411c0,0.815-0.228,1.559-1.391,2.65l-2.243,2.135H263.522z"/>
				<path style="fill:#407BFF;" d="M271.238,161.348c0,1.559-1.355,2.531-3.442,2.531c-2.087,0-3.418-0.972-3.418-2.531
					c0-0.923,0.479-1.607,1.343-2.003c-0.671-0.372-1.043-0.972-1.043-1.763c0-1.439,1.259-2.338,3.118-2.338
					c1.871,0,3.142,0.899,3.142,2.338c0,0.792-0.384,1.392-1.067,1.763C270.746,159.741,271.238,160.424,271.238,161.348z
					 M269.667,161.3c0-0.828-0.72-1.343-1.871-1.343s-1.847,0.516-1.847,1.343c0,0.852,0.696,1.355,1.847,1.355
					S269.667,162.151,269.667,161.3z M266.213,157.654c0,0.719,0.6,1.175,1.583,1.175c0.995,0,1.607-0.456,1.607-1.175
					c0-0.756-0.647-1.188-1.607-1.188S266.213,156.898,266.213,157.654z"/>
			</g>
			<g>
				<path d="M238.888,213.616v0.745h-0.545v-0.738c-0.652-0.04-1.284-0.253-1.63-0.552l0.299-0.672
					c0.326,0.266,0.825,0.459,1.331,0.505v-1.331c-0.738-0.18-1.53-0.419-1.53-1.344c0-0.679,0.492-1.271,1.53-1.371v-0.752h0.545
					v0.739c0.493,0.026,0.991,0.173,1.351,0.406l-0.273,0.672c-0.353-0.206-0.725-0.319-1.078-0.359v1.344
					c0.739,0.179,1.543,0.412,1.543,1.337C240.432,212.924,239.933,213.51,238.888,213.616z M238.343,210.769v-1.184
					c-0.472,0.073-0.672,0.313-0.672,0.605C237.671,210.509,237.957,210.656,238.343,210.769z M239.58,212.306
					c0-0.326-0.292-0.479-0.692-0.592v1.178C239.374,212.818,239.58,212.592,239.58,212.306z"/>
				<path d="M244.4,208.906v4.657h-0.865v-3.932h-0.984v-0.725H244.4z"/>
				<path d="M246.934,208.906v4.657h-0.865v-3.932h-0.984v-0.725H246.934z"/>
				<path d="M251.243,212.133c0,0.818-0.592,1.497-1.843,1.497c-0.659,0-1.324-0.2-1.75-0.539l0.366-0.672
					c0.339,0.279,0.845,0.459,1.37,0.459c0.619,0,0.985-0.273,0.985-0.712c0-0.446-0.286-0.725-1.251-0.725h-1.124l0.239-2.535
					h2.734v0.725h-2.002l-0.1,1.078h0.445C250.691,210.709,251.243,211.308,251.243,212.133z"/>
				<path d="M252.805,213.058c0,0.146-0.034,0.266-0.153,0.572l-0.339,0.938h-0.539l0.266-1.018
					c-0.187-0.08-0.313-0.253-0.313-0.492c0-0.333,0.233-0.552,0.539-0.552C252.578,212.505,252.805,212.731,252.805,213.058z"/>
				<path d="M256.802,212.831v0.732h-3.433v-0.579l1.85-1.756c0.452-0.433,0.532-0.705,0.532-0.965c0-0.426-0.293-0.672-0.865-0.672
					c-0.452,0-0.831,0.153-1.091,0.486l-0.605-0.466c0.359-0.486,1.004-0.772,1.77-0.772c1.011,0,1.663,0.512,1.663,1.337
					c0,0.452-0.126,0.865-0.771,1.47l-1.244,1.184H256.802z"/>
				<path d="M257.278,211.234c0-1.53,0.838-2.395,1.943-2.395c1.111,0,1.949,0.865,1.949,2.395c0,1.53-0.838,2.395-1.949,2.395
					C258.117,213.629,257.278,212.765,257.278,211.234z M260.299,211.234c0-1.124-0.439-1.643-1.078-1.643
					c-0.632,0-1.071,0.519-1.071,1.643c0,1.124,0.439,1.643,1.071,1.643C259.86,212.878,260.299,212.359,260.299,211.234z"/>
			</g>
			<g>
				<path style="fill:#263238;" d="M212.754,202.718c-4.915,20.001,7.314,40.201,27.316,45.116
					c20.001,4.915,40.201-7.314,45.116-27.315c4.915-20.001-7.314-40.201-27.315-45.116
					C237.869,170.487,217.67,182.717,212.754,202.718z M228.164,206.505c2.824-11.491,14.429-18.517,25.92-15.693
					c11.491,2.824,18.517,14.429,15.693,25.92c-2.824,11.491-14.429,18.517-25.92,15.693
					C232.366,229.601,225.34,217.996,228.164,206.505z"/>
				<path style="fill:#407BFF;" d="M217.171,231.128c8.964,14.63,27.34,21.764,44.558,15.534
					c17.332-6.268,27.566-24.685,23.737-42.713c-3.841-18.096-19.885-29.987-37.25-29.624c5.233-0.103,9.11,4.847,7.799,9.912
					c-0.447,1.742-1.45,3.206-2.792,4.247c-1.333,1.043-3.007,1.661-4.805,1.711c-0.151,0.001-0.296,0.012-0.45,0.022
					c10.148-0.492,19.63,6.336,21.934,16.844c2.301,10.441-3.663,21.175-13.745,24.746c-9.811,3.467-20.242-0.58-25.394-8.877
					c-1.149-1.861-2.935-3.131-4.94-3.624c-1.301-0.32-2.683-0.31-4.035,0.076C216.756,220.82,214.44,226.667,217.171,231.128z"/>
			</g>
			<g>
				<rect x="184.641" y="275.001" style="fill:#407BFF;" width="3.56" height="11.631"/>
				<rect x="193.577" y="278.001" style="fill:#407BFF;" width="3.56" height="8.631"/>
				<rect x="202.508" y="265" style="fill:#407BFF;" width="3.56" height="21.63"/>
				<rect x="211.448" y="260" style="fill:#407BFF;" width="3.56" height="26.63"/>
				<rect x="220.388" y="265" style="fill:#407BFF;" width="3.56" height="21.63"/>
				<rect x="229.319" y="275.001" style="fill:#407BFF;" width="3.56" height="11.631"/>
				<rect x="238.254" y="277.001" style="fill:#407BFF;" width="3.56" height="9.631"/>
				<rect x="247.19" y="278.001" style="fill:#407BFF;" width="3.56" height="8.631"/>
				<rect x="256.126" y="275.001" style="fill:#407BFF;" width="3.56" height="11.631"/>
				<rect x="265.058" y="270" style="fill:#407BFF;" width="3.56" height="16.63"/>
				<rect x="273.998" y="266" style="fill:#407BFF;" width="3.56" height="20.63"/>
				<rect x="282.928" y="262" style="fill:#407BFF;" width="3.56" height="24.63"/>
				<rect x="291.868" y="257" style="fill:#407BFF;" width="3.56" height="29.63"/>
				<rect x="300.808" y="264" style="fill:#407BFF;" width="3.56" height="22.63"/>
				<rect x="309.739" y="275.001" style="fill:#407BFF;" width="3.56" height="11.631"/>
				<rect x="202.508" y="265" style="fill:#263238;" width="3.56" height="5"/>
				<rect x="211.448" y="260" style="fill:#263238;" width="3.56" height="10"/>
				<rect x="220.388" y="265" style="fill:#263238;" width="3.56" height="5"/>
				<rect x="273.998" y="266" style="fill:#263238;" width="3.56" height="4"/>
				<rect x="282.928" y="262" style="fill:#263238;" width="3.56" height="8"/>
				<rect x="291.868" y="257" style="fill:#263238;" width="3.56" height="13"/>
				<rect x="300.808" y="264" style="fill:#263238;" width="3.56" height="6"/>
			</g>
			<g>
				<path style="fill:#407BFF;" d="M313.246,322.289H184.694c-1.644,0-2.977-1.333-2.977-2.977v-15.335
					c0-1.644,1.333-2.977,2.977-2.977h128.552c1.644,0,2.977,1.333,2.977,2.977v15.335
					C316.223,320.956,314.89,322.289,313.246,322.289z"/>
				<g style="opacity:0.7;enable-background:new    ;">
					<path style="fill:#FFFFFF;" d="M282.734,311.594h-1.178v1.164h-0.712v-1.164h-1.177v-0.665h1.177v-1.164h0.712v1.164h1.178
						V311.594z"/>
					<path style="fill:#FFFFFF;" d="M287.401,313.643v0.745h-0.545v-0.738c-0.652-0.04-1.284-0.253-1.63-0.552l0.299-0.672
						c0.326,0.266,0.825,0.459,1.331,0.505v-1.33c-0.738-0.18-1.53-0.419-1.53-1.344c0-0.679,0.493-1.271,1.53-1.371v-0.752h0.545
						v0.739c0.492,0.026,0.991,0.173,1.351,0.405l-0.273,0.672c-0.353-0.206-0.726-0.319-1.078-0.359v1.345
						c0.739,0.179,1.543,0.412,1.543,1.337C288.945,312.951,288.446,313.536,287.401,313.643z M286.856,310.795v-1.184
						c-0.472,0.073-0.672,0.313-0.672,0.605C286.184,310.536,286.47,310.683,286.856,310.795z M288.093,312.332
						c0-0.326-0.292-0.479-0.692-0.592v1.178C287.887,312.845,288.093,312.618,288.093,312.332z"/>
					<path style="fill:#FFFFFF;" d="M294.815,308.933v0.579l-1.81,4.078h-0.924l1.75-3.926h-1.83v0.792h-0.805v-1.523H294.815z"/>
					<path style="fill:#FFFFFF;" d="M298.613,312.159c0,0.818-0.592,1.497-1.843,1.497c-0.658,0-1.324-0.2-1.75-0.539l0.366-0.672
						c0.339,0.279,0.845,0.459,1.371,0.459c0.619,0,0.985-0.272,0.985-0.712c0-0.445-0.286-0.725-1.251-0.725h-1.124l0.239-2.535
						h2.734v0.726h-2.002l-0.1,1.077h0.446C298.06,310.735,298.613,311.334,298.613,312.159z"/>
					<path style="fill:#FFFFFF;" d="M300.174,313.084c0,0.146-0.034,0.266-0.153,0.572l-0.339,0.938h-0.539l0.266-1.018
						c-0.186-0.08-0.313-0.253-0.313-0.492c0-0.333,0.233-0.552,0.539-0.552C299.947,312.532,300.174,312.758,300.174,313.084z"/>
					<path style="fill:#FFFFFF;" d="M300.652,311.261c0-1.53,0.838-2.395,1.942-2.395c1.111,0,1.949,0.864,1.949,2.395
						c0,1.53-0.838,2.396-1.949,2.396C301.49,313.656,300.652,312.791,300.652,311.261z M303.672,311.261
						c0-1.124-0.439-1.643-1.078-1.643c-0.632,0-1.071,0.518-1.071,1.643c0,1.125,0.439,1.644,1.071,1.644
						C303.233,312.904,303.672,312.386,303.672,311.261z"/>
					<path style="fill:#FFFFFF;" d="M308.513,312.159c0,0.818-0.592,1.497-1.843,1.497c-0.658,0-1.324-0.2-1.749-0.539l0.366-0.672
						c0.339,0.279,0.845,0.459,1.371,0.459c0.619,0,0.985-0.272,0.985-0.712c0-0.445-0.286-0.725-1.251-0.725h-1.124l0.239-2.535
						h2.734v0.726h-2.002l-0.1,1.077h0.446C307.961,310.735,308.513,311.334,308.513,312.159z"/>
				</g>
				<g>
					<path style="opacity:0.7;fill:#FFFFFF;enable-background:new    ;" d="M222.756,310.027h-31.315
						c-0.658,0-1.192-0.534-1.192-1.192l0,0c0-0.658,0.534-1.192,1.192-1.192h31.315c0.658,0,1.192,0.534,1.192,1.192l0,0
						C223.948,309.493,223.414,310.027,222.756,310.027z"/>
					<path style="opacity:0.7;fill:#FFFFFF;enable-background:new    ;" d="M208.756,315.646h-17.315
						c-0.658,0-1.192-0.534-1.192-1.192l0,0c0-0.658,0.534-1.192,1.192-1.192h17.315c0.658,0,1.192,0.534,1.192,1.192l0,0
						C209.948,315.112,209.414,315.646,208.756,315.646z"/>
				</g>
				<path style="fill:#407BFF;" d="M313.246,351.289H184.694c-1.644,0-2.977-1.333-2.977-2.977v-15.335
					c0-1.644,1.333-2.977,2.977-2.977h128.552c1.644,0,2.977,1.333,2.977,2.977v15.335
					C316.223,349.956,314.89,351.289,313.246,351.289z"/>
				<g style="opacity:0.7;enable-background:new    ;">
					<path style="fill:#FFFFFF;" d="M280.432,340.395h1.83v0.691h-1.83V340.395z"/>
					<path style="fill:#FFFFFF;" d="M286.869,342.643v0.745h-0.545v-0.738c-0.652-0.04-1.284-0.253-1.63-0.552l0.299-0.672
						c0.326,0.266,0.825,0.459,1.331,0.505v-1.33c-0.738-0.18-1.53-0.419-1.53-1.344c0-0.679,0.493-1.271,1.53-1.371v-0.752h0.545
						v0.739c0.492,0.026,0.991,0.173,1.351,0.405l-0.272,0.672c-0.353-0.206-0.726-0.319-1.078-0.359v1.345
						c0.739,0.179,1.543,0.412,1.543,1.337C288.413,341.951,287.914,342.536,286.869,342.643z M286.324,339.795v-1.184
						c-0.472,0.073-0.672,0.313-0.672,0.605C285.652,339.536,285.938,339.683,286.324,339.795z M287.561,341.332
						c0-0.326-0.292-0.479-0.692-0.592v1.178C287.355,341.845,287.561,341.618,287.561,341.332z"/>
					<path style="fill:#FFFFFF;" d="M294.158,341.159c0,0.818-0.592,1.497-1.843,1.497c-0.658,0-1.324-0.2-1.75-0.539l0.366-0.672
						c0.339,0.279,0.845,0.459,1.371,0.459c0.619,0,0.985-0.272,0.985-0.712c0-0.445-0.286-0.725-1.251-0.725h-1.124l0.239-2.535
						h2.734v0.726h-2.003l-0.1,1.077h0.446C293.605,339.735,294.158,340.334,294.158,341.159z"/>
					<path style="fill:#FFFFFF;" d="M298.007,341.159c0,0.818-0.592,1.497-1.843,1.497c-0.658,0-1.324-0.2-1.749-0.539l0.366-0.672
						c0.339,0.279,0.845,0.459,1.371,0.459c0.619,0,0.985-0.272,0.985-0.712c0-0.445-0.286-0.725-1.251-0.725h-1.124l0.239-2.535
						h2.734v0.726h-2.003l-0.1,1.077h0.446C297.455,339.735,298.007,340.334,298.007,341.159z"/>
					<path style="fill:#FFFFFF;" d="M299.568,342.084c0,0.146-0.033,0.266-0.153,0.572l-0.339,0.938h-0.539l0.266-1.018
						c-0.187-0.08-0.313-0.253-0.313-0.492c0-0.333,0.233-0.552,0.539-0.552C299.342,341.532,299.568,341.758,299.568,342.084z"/>
					<path style="fill:#FFFFFF;" d="M304.245,341.532h-0.825v1.058h-0.838v-1.058h-2.555v-0.6l2.295-3h0.925l-2.162,2.867h1.523
						v-0.938h0.811v0.938h0.825V341.532z"/>
					<path style="fill:#FFFFFF;" d="M308.453,341.252c0,0.865-0.751,1.404-1.909,1.404c-1.158,0-1.896-0.539-1.896-1.404
						c0-0.512,0.266-0.891,0.745-1.11c-0.373-0.206-0.579-0.539-0.579-0.979c0-0.798,0.698-1.297,1.729-1.297
						c1.038,0,1.743,0.499,1.743,1.297c0,0.439-0.213,0.772-0.592,0.979C308.181,340.361,308.453,340.74,308.453,341.252z
						 M307.582,341.226c0-0.459-0.399-0.745-1.038-0.745c-0.639,0-1.024,0.286-1.024,0.745c0,0.473,0.386,0.752,1.024,0.752
						C307.183,341.978,307.582,341.698,307.582,341.226z M305.666,339.203c0,0.399,0.333,0.652,0.878,0.652
						c0.552,0,0.892-0.253,0.892-0.652c0-0.419-0.359-0.658-0.892-0.658C306.012,338.545,305.666,338.784,305.666,339.203z"/>
				</g>
				<g>
					<path style="opacity:0.7;fill:#FFFFFF;enable-background:new    ;" d="M222.756,339.027h-31.315
						c-0.658,0-1.192-0.534-1.192-1.192l0,0c0-0.658,0.534-1.192,1.192-1.192h31.315c0.658,0,1.192,0.534,1.192,1.192l0,0
						C223.948,338.493,223.414,339.027,222.756,339.027z"/>
					<path style="opacity:0.7;fill:#FFFFFF;enable-background:new    ;" d="M208.756,344.646h-17.315
						c-0.658,0-1.192-0.534-1.192-1.192l0,0c0-0.658,0.534-1.192,1.192-1.192h17.315c0.658,0,1.192,0.534,1.192,1.192l0,0
						C209.948,344.112,209.414,344.646,208.756,344.646z"/>
				</g>
				<path style="fill:#407BFF;" d="M313.246,380.289H184.694c-1.644,0-2.977-1.333-2.977-2.977v-15.335
					c0-1.644,1.333-2.977,2.977-2.977h128.552c1.644,0,2.977,1.333,2.977,2.977v15.335
					C316.223,378.956,314.89,380.289,313.246,380.289z"/>
				<g style="opacity:0.7;enable-background:new    ;">
					<path style="fill:#FFFFFF;" d="M283.493,369.594h-1.178v1.164h-0.712v-1.164h-1.177v-0.665h1.177v-1.164h0.712v1.164h1.178
						V369.594z"/>
					<path style="fill:#FFFFFF;" d="M288.16,371.643v0.745h-0.545v-0.738c-0.652-0.04-1.284-0.253-1.63-0.552l0.299-0.672
						c0.326,0.266,0.825,0.459,1.331,0.505v-1.33c-0.738-0.18-1.53-0.419-1.53-1.344c0-0.679,0.492-1.271,1.53-1.371v-0.752h0.545
						v0.739c0.493,0.026,0.991,0.173,1.351,0.405l-0.273,0.672c-0.353-0.206-0.725-0.319-1.078-0.359v1.345
						c0.739,0.179,1.543,0.412,1.543,1.337C289.703,370.951,289.204,371.536,288.16,371.643z M287.614,368.795v-1.184
						c-0.472,0.073-0.672,0.313-0.672,0.605C286.942,368.536,287.228,368.683,287.614,368.795z M288.852,370.332
						c0-0.326-0.292-0.479-0.692-0.592v1.178C288.646,370.845,288.852,370.618,288.852,370.332z"/>
					<path style="fill:#FFFFFF;" d="M293.671,366.933v4.657h-0.865v-3.932h-0.985v-0.726H293.671z"/>
					<path style="fill:#FFFFFF;" d="M298.374,370.252c0,0.865-0.752,1.404-1.91,1.404c-1.158,0-1.896-0.539-1.896-1.404
						c0-0.512,0.266-0.891,0.745-1.11c-0.373-0.206-0.579-0.539-0.579-0.979c0-0.798,0.698-1.297,1.729-1.297
						c1.038,0,1.743,0.499,1.743,1.297c0,0.439-0.213,0.772-0.592,0.979C298.101,369.361,298.374,369.74,298.374,370.252z
						 M297.502,370.226c0-0.459-0.399-0.745-1.038-0.745c-0.639,0-1.024,0.286-1.024,0.745c0,0.473,0.386,0.752,1.024,0.752
						C297.103,370.978,297.502,370.698,297.502,370.226z M295.586,368.203c0,0.399,0.333,0.652,0.878,0.652
						c0.552,0,0.892-0.253,0.892-0.652c0-0.419-0.359-0.658-0.892-0.658C295.932,367.545,295.586,367.784,295.586,368.203z"/>
					<path style="fill:#FFFFFF;" d="M300.06,371.084c0,0.146-0.033,0.266-0.153,0.572l-0.339,0.938h-0.539l0.266-1.018
						c-0.186-0.08-0.313-0.253-0.313-0.492c0-0.333,0.233-0.552,0.539-0.552C299.835,370.532,300.06,370.758,300.06,371.084z"/>
					<path style="fill:#FFFFFF;" d="M304.058,370.857v0.732h-3.433v-0.579l1.85-1.756c0.452-0.433,0.532-0.706,0.532-0.965
						c0-0.426-0.293-0.672-0.865-0.672c-0.452,0-0.832,0.152-1.091,0.485l-0.605-0.466c0.359-0.485,1.004-0.771,1.77-0.771
						c1.011,0,1.664,0.512,1.664,1.337c0,0.452-0.126,0.865-0.772,1.471l-1.244,1.184H304.058z"/>
					<path style="fill:#FFFFFF;" d="M304.535,369.261c0-1.53,0.838-2.395,1.942-2.395c1.111,0,1.949,0.864,1.949,2.395
						c0,1.53-0.838,2.396-1.949,2.396C305.373,371.656,304.535,370.791,304.535,369.261z M307.555,369.261
						c0-1.124-0.439-1.643-1.078-1.643c-0.632,0-1.071,0.518-1.071,1.643c0,1.125,0.44,1.644,1.071,1.644
						C307.116,370.904,307.555,370.386,307.555,369.261z"/>
				</g>
				<g>
					<path style="opacity:0.7;fill:#FFFFFF;enable-background:new    ;" d="M222.756,368.027h-31.315
						c-0.658,0-1.192-0.534-1.192-1.192l0,0c0-0.658,0.534-1.192,1.192-1.192h31.315c0.658,0,1.192,0.534,1.192,1.192l0,0
						C223.948,367.493,223.414,368.027,222.756,368.027z"/>
					<path style="opacity:0.7;fill:#FFFFFF;enable-background:new    ;" d="M208.756,373.646h-17.315
						c-0.658,0-1.192-0.534-1.192-1.192l0,0c0-0.658,0.534-1.192,1.192-1.192h17.315c0.658,0,1.192,0.534,1.192,1.192l0,0
						C209.948,373.112,209.414,373.646,208.756,373.646z"/>
				</g>
			</g>
		</g>
	</g>
</g>
<g id="Speech_bubble">
	<g>
		<path style="fill:#407BFF;" d="M109.274,155.761l13.714,0.01c2.039,0.001,3.693-1.65,3.695-3.69l0.01-13.714
			c0.001-2.039-1.65-3.694-3.69-3.695l-13.714-0.01c-2.039-0.001-3.693,1.651-3.695,3.69l-0.01,13.714
			C105.583,154.105,107.235,155.759,109.274,155.761z"/>
		<path style="opacity:0.6;fill:#FFFFFF;enable-background:new    ;" d="M110.334,141.059c1.492-2.419,4.338-1.487,5.808,0.394
			c1.473-1.879,4.32-2.807,5.808-0.386c2.51,4.082-2.67,7.858-5.117,9.336c-0.277,0.17-0.507,0.31-0.698,0.42
			c-0.191-0.11-0.42-0.25-0.697-0.421C112.994,148.921,107.819,145.138,110.334,141.059z"/>
		<path style="fill:#407BFF;" d="M113.866,154.13c0,0,2.765,6.332,8.961,8.314c0,0-3.427-1.98-3.159-8.574L113.866,154.13z"/>
	</g>
</g>
<g id="Character">
	<g id="_x3C_Group_x3E__169_">
		<g>
			<path style="fill:#263238;" d="M108.002,195.848c0.044,0.509-0.337,0.91-0.85,0.896l-9.136-0.247
				c-0.514-0.014-0.965-0.438-1.01-0.946l-1.552-18.087c-0.044-0.508,0.34-1.035,0.854-1.021l9.136,0.247
				c0.514,0.014,0.962,0.563,1.006,1.071L108.002,195.848z"/>
			<path style="opacity:0.5;fill:#FFFFFF;" d="M105.439,177.616l1.575,18.262c0.045,0.515-0.232,0.856-0.742,0.843l-7.747-0.209
				c-0.52-0.014-1.464-0.326-1.509-0.841l-1.573-18.324c-0.045-0.515,0.854-0.902,1.373-0.888l7.747,0.209
				C105.074,176.68,105.395,177.101,105.439,177.616z"/>
		</g>
		<path style="fill:#E4897B;" d="M102.296,200.82l-1.066-3.523c0,0,0.967-2.715,1.066-3.901s-3.066-10.45-3.066-10.45
			s-3.462,2.744-5.539,4.124c-2.077,1.381,1.225,10.322,1.75,10.549c0.525,0.227,1.531,0.821,1.531,0.821l0.683,2.868
			L102.296,200.82z"/>
		<g>
			<path style="fill:#407BFF;" d="M96.591,204.09c1.07,4.14,5.7,20.88,11.24,23.13c1.45,0.59,3.16,0.22,4.95-0.71
				c6.01-3.11,12.8-12.49,12.8-12.49l-1.37-6.84l-1.27-6.36c-5.02,2.47-10.75,14.51-12.34,14.42c-1.34-0.07-4.67-10.38-5.65-13.52
				c-0.16-0.51-0.69-0.79-1.2-0.64l-6.48,1.83C96.761,203.05,96.461,203.58,96.591,204.09z"/>
			<g>
				<polygon style="fill:#407BFF;" points="102.692,198.934 103.233,201.224 97.274,202.908 96.563,200.418 				"/>
				<polygon style="opacity:0.2;enable-background:new    ;" points="102.692,198.934 103.233,201.224 97.274,202.908 
					96.563,200.418 				"/>
			</g>
			<path style="opacity:0.2;enable-background:new    ;" d="M112.781,226.51c6.01-3.11,12.8-12.49,12.8-12.49l-1.37-6.84
				C121.121,210.05,113.761,217.73,112.781,226.51z"/>
		</g>
		<path style="fill:#263238;" d="M158.206,328.864l-0.043-8.732c0-0.294,0.204-0.55,0.491-0.615l6.394-1.448
			c0.572-0.124,1.137,0.24,1.261,0.812c0.017,0.077,0.025,0.155,0.024,0.233c-0.032,2.826-0.196,4.884-0.178,8.432
			c0.011,2.185,0.271,8.777,0.286,11.794c0.015,3.017-2.964,3.425-3.245,2.192c-1.234-5.535-2.928-9.697-4.527-11.463
			C158.365,329.742,158.199,329.31,158.206,328.864z"/>
		<g>
			<path style="fill:#263238;" d="M119.221,248.458l-2.82,14.793c0,0-22.291,36.079-22.279,56.91
				c0.015,24.883,64.922,10.527,64.922,10.527v-11.457c0,0-38.799,3.334-42.294-0.557c-4.243-4.724,21.917-41.284,21.917-41.284
				L119.221,248.458z"/>
			<path style="opacity:0.2;fill:#FFFFFF;enable-background:new    ;" d="M94.12,320.164c0.009,13.717,19.742,15.508,37.447,14.352
				c11.803-0.767,22.706-2.849,26.261-3.573c0.785-0.159,1.218-0.256,1.218-0.256v-11.459c0,0-0.512,0.044-1.429,0.115
				c-4.411,0.353-18.146,1.35-28.537,1.2c-6.175-0.088-11.177-0.591-12.332-1.87c-2.082-2.32,3.176-12.332,9.06-21.912
				c0-0.009,0-0.009,0-0.009c6.095-9.906,12.862-19.363,12.862-19.363l-8.522-12.685l-10.921-16.249l-2.823,14.793
				C116.402,263.249,94.111,299.328,94.12,320.164z"/>
		</g>
		<path style="opacity:0.2;enable-background:new    ;" d="M129.079,320.544l2.488,13.973c11.803-0.767,22.706-2.849,26.261-3.573
			l-0.211-11.6C153.205,319.697,139.47,320.694,129.079,320.544z"/>
		<path style="opacity:0.2;enable-background:new    ;" d="M130.111,280.53c0,0-3.625,8.53-4.305,16.223
			c6.095-9.906,12.862-19.363,12.862-19.363l-8.522-12.685l-4.49-1.456C125.656,263.249,124.661,269.076,130.111,280.53z"/>
		<path style="fill:#263238;" d="M135.91,405.773h8.732c0.294,0.002,0.549,0.206,0.613,0.494l1.417,6.401
			c0.121,0.573-0.245,1.136-0.818,1.257c-0.077,0.016-0.155,0.024-0.233,0.023c-2.826-0.046-4.883-0.22-8.431-0.22
			c-2.185,0-8.778,0.229-11.796,0.229c-3.017,0-3.411-2.981-2.176-3.255c5.541-1.207,9.711-2.88,11.485-4.471
			C135.031,405.928,135.464,405.765,135.91,405.773z"/>
		<g>
			<path style="fill:#263238;" d="M158.115,248.931c0,0,1.939,7.245,0,40.448c-2.977,50.978-12.427,118.846-12.427,118.846
				l-10.986-1.995c0,0,1.402-101.521-0.074-129.537c0,0-15.524-13.923-15.408-28.235
				C119.338,234.147,158.115,248.931,158.115,248.931z"/>
			<path style="opacity:0.2;fill:#FFFFFF;enable-background:new    ;" d="M158.115,248.931c0,0,1.939,7.245,0,40.448
				c-2.977,50.978-12.427,118.846-12.427,118.846l-10.986-1.995c0,0,1.402-101.521-0.074-129.537c0,0-15.524-13.923-15.408-28.235
				C119.338,234.147,158.115,248.931,158.115,248.931z"/>
		</g>
		<g>
			<path style="fill:#407BFF;" d="M118.411,247.51c-0.01,0.71,0.56,1.29,1.27,1.3l36.2,0.81l2.57,0.06c0.7,0.02,1.29-0.51,1.33-1.21
				l0.73-9.53l0.39-5.13l1.86-24.44l0.39-5.16c-17.73-13.24-40.21-3.39-40.21-3.39C118.901,213.53,118.461,240.58,118.411,247.51z"
				/>
			<g>
				<polygon style="fill:#407BFF;" points="159.127,249.51 118.66,248.274 118.186,250.68 159.127,252.011 				"/>
				<polygon style="opacity:0.2;enable-background:new    ;" points="159.127,249.51 118.66,248.274 118.186,250.68 
					159.127,252.011 				"/>
			</g>
			<path style="opacity:0.2;enable-background:new    ;" d="M160.901,233.81l1.86-24.44c-0.99,0.3-2,0.84-3,1.67
				C159.761,211.04,153.441,220.88,160.901,233.81z"/>
			<path style="opacity:0.2;enable-background:new    ;" d="M155.881,249.62l2.57,0.06c0.7,0.02,1.29-0.51,1.33-1.21l0.73-9.53
				C159.071,241.82,157.021,246.16,155.881,249.62z"/>
			<g style="opacity:0.7;enable-background:new    ;">
				<path style="fill:#FFFFFF;" d="M122.56,220.494l0.445-1.161c0.503,0.349,1.261,0.579,1.954,0.547
					c0.818-0.037,1.148-0.317,1.127-0.76c-0.056-1.222-3.42,0.084-3.536-2.468c-0.055-1.21,0.851-2.044,2.342-2.112
					c0.735-0.034,1.583,0.132,2.096,0.457l-0.446,1.161c-0.544-0.335-1.078-0.431-1.606-0.407c-0.786,0.036-1.146,0.352-1.127,0.772
					c0.059,1.294,3.423-0.012,3.537,2.492c0.055,1.198-0.863,2.02-2.415,2.091C124.011,221.148,123.075,220.879,122.56,220.494z"/>
			</g>
		</g>
		<path style="fill:#E4897B;" d="M150.692,200.49c-3.485,3.166-12.022,1.996-12.022,1.996s-5.329-1.459-4.21-3.124
			c3.139-0.519,4.659-1.984,5.286-3.858c0.364-1.092,0.419-2.32,0.318-3.585c-0.046-0.664-0.146-1.337-0.264-2.002l10.554-7.816
			C148.972,187.261,147.28,196.751,150.692,200.49z"/>
		<path style="opacity:0.2;enable-background:new    ;" d="M147.917,187.07c-0.419,6.333-5.623,8.08-8.171,8.434
			c0.364-1.092,0.419-2.32,0.318-3.585L147.917,187.07z"/>
		<g>
			<path style="fill:#263238;" d="M153.874,165.691c0,0,2.945,9.525-1.667,14.051c-4.611,4.525-7.334-13.62-7.334-13.62
				L153.874,165.691z"/>
			<path style="fill:#E4897B;" d="M138.35,189.743c3.052,3.232,7.287,3.562,10.673,1.904c2.178-1.063,4-2.956,4.936-5.424
				c0.127-0.323,0.232-0.66,0.328-1.006c1.652-6.339,0.899-16.88-5.986-19.84c-4.894-2.145-10.614,0.084-12.758,4.987
				c-0.619,1.39-0.888,2.912-0.806,4.436C135.008,181.881,134.834,186.057,138.35,189.743z"/>
			<path style="fill:#263238;" d="M145.447,176.998c-0.051,0.571,0.28,1.048,0.663,1.055c0.383,0.007,0.69-0.458,0.705-1.032
				c0.015-0.574-0.289-1.049-0.663-1.056C145.779,175.959,145.463,176.415,145.447,176.998z"/>
			<path style="fill:#263238;" d="M151.967,177.13c-0.051,0.571,0.289,1.049,0.663,1.055c0.374,0.006,0.69-0.458,0.705-1.033
				c0.015-0.574-0.289-1.049-0.663-1.056C152.298,176.091,151.98,176.583,151.967,177.13z"/>
			<path style="fill:#DE5753;" d="M149.89,177.372c0.651,1.778,1.545,3.457,2.656,4.99c-0.814,0.557-1.832,0.726-2.782,0.462
				L149.89,177.372z"/>
			<path style="fill:#263238;" d="M143.467,174.846c0.125,0.02,0.251-0.027,0.331-0.125c0.517-0.689,1.329-1.093,2.19-1.09
				c0.185,0.017,0.349-0.119,0.366-0.304c0.017-0.185-0.119-0.349-0.304-0.366c0,0-0.001,0-0.001,0
				c-1.089-0.031-2.125,0.468-2.779,1.339c-0.119,0.143-0.101,0.355,0.042,0.474c0.002,0.002,0.004,0.003,0.006,0.005
				C143.364,174.808,143.414,174.831,143.467,174.846z"/>
			<path style="fill:#263238;" d="M154.814,174.938c0.063,0.027,0.133,0.033,0.199,0.018c0.17-0.075,0.247-0.274,0.171-0.444
				c-0.001-0.002-0.002-0.005-0.003-0.007c-0.435-1.003-1.33-1.731-2.4-1.952c-0.184-0.027-0.355,0.1-0.382,0.284v0.001
				c-0.022,0.183,0.103,0.351,0.285,0.382l0,0c0.839,0.199,1.535,0.784,1.877,1.576C154.622,174.878,154.714,174.93,154.814,174.938
				z"/>
			<path style="fill:#263238;" d="M140.112,166.069l0.467,3.111c-1.009,0.574-1.595,1.746-1.089,2.962
				c1.08,2.598-0.298,6.711-2.268,8.391c0,0-0.094-1.136-1.046-0.84c-0.952,0.296-0.525,6.213,1.425,8.987
				c0,0-3.386-3.035-5.156-9.21c-1.637-5.711-1.469-9.941-0.348-12.199L140.112,166.069z"/>
			<path style="fill:#E4897B;" d="M131.525,180.546c0.753,1.619,2.118,2.872,3.794,3.486c2.225,0.797,3.506-1.155,3.035-3.346
				c-0.438-1.943-2.11-4.764-4.417-4.594C131.629,176.262,130.625,178.547,131.525,180.546z"/>
			<g>
				<path style="fill:#263238;" d="M148.961,184.897c-0.869,0.791-2.097,2.445-2.097,2.445c-0.17-0.084-0.34-0.169-0.505-0.262
					c-2.275-1.201-2.933-2.509-2.973-3.596c-0.02-0.594,0.154-1.126,0.348-1.531c0.22-0.471,0.484-0.757,0.484-0.757
					c0.825,1.357,2.86,2.64,3.975,3.28C148.656,184.748,148.961,184.897,148.961,184.897z"/>
				<path style="fill:#FFFFFF;" d="M148.192,184.475l-0.637,0.705c-2.14-1.136-3.494-2.223-3.821-3.227
					c0.22-0.471,0.484-0.757,0.484-0.757C145.043,182.553,147.077,183.835,148.192,184.475z"/>
				<path style="fill:#DE5753;" d="M146.359,187.08c-2.275-1.201-2.933-2.509-2.973-3.596c0.759,0.439,1.626,1.053,2.261,1.834
					C146.135,185.913,146.315,186.529,146.359,187.08z"/>
			</g>
			<path style="fill:#263238;" d="M131.238,172.022c0,0-1.166-4.89,3.485-8.775c4.651-3.885,17.706-5.709,19.684,0
				c1.978,5.709-7.66,10.951-14.66,5.907L131.238,172.022z"/>
		</g>
		<g>
			<path style="fill:#407BFF;" d="M149.498,195.713l-10.138,4.572l-0.594-3.665l-3.727,1.311c-1.338,0.471-2.178,1.798-2.031,3.209
				l0.42,4.022l5.144-2.815l2.563,3.626l12.178-5.866L149.498,195.713z"/>
			<path style="opacity:0.7;fill:#FFFFFF;enable-background:new    ;" d="M149.498,195.713l-10.138,4.572l-0.594-3.665l-3.727,1.311
				c-1.338,0.471-2.178,1.798-2.031,3.209l0.42,4.022l5.144-2.815l2.563,3.626l12.178-5.866L149.498,195.713z"/>
		</g>
		<g>
			<path style="opacity:0.2;enable-background:new    ;" d="M151.117,252.011c0,0,0.234,5.407,7.223,7.714
				c0,0,0.44-3.575-0.558-7.758L151.117,252.011z"/>
			<path style="fill:#407BFF;" d="M163.153,204.209c6.198,6,15.426,25.186,12.691,33.494c-2.323,7.055-13.135,17.677-16.342,20.719
				c-0.49,0.465-1.266,0.438-1.721-0.062l-3.844-4.224c-0.39-0.429-0.423-1.07-0.073-1.533c2.496-3.297,11.939-15.888,12.577-18.461
				c0.734-2.967-7.314-14.637-7.314-14.637s-1.227-5.029-0.15-10.229C160.054,204.077,163.153,204.209,163.153,204.209z"/>
			<path style="fill:#407BFF;" d="M153.673,253.655l-1.398,1.455c0,0,2.176,3.297,4.813,3.956l0.694-0.705L153.673,253.655z"/>
			<path style="opacity:0.2;enable-background:new    ;" d="M153.673,253.655l-1.398,1.455c0,0,2.176,3.297,4.813,3.956l0.694-0.705
				L153.673,253.655z"/>
		</g>
	</g>
</g>
</svg>
